<svg width="440" height="632" viewBox="0 0 440 632" fill="none" xmlns="http://www.w3.org/2000/svg">
<path d="M400.984 131.959C393.433 129.148 391.489 125.98 391.274 117.714C390.539 90.0213 377.982 71.9827 353.219 63.7848C345.241 61.1426 342.362 56.6542 340.156 49.083C332.055 21.2036 314.122 4.18124 287.062 0.725956C261.028 -2.66157 241.12 9.85536 227.154 33.3479C225.622 35.8885 223.8 38.1921 222.038 40.7158C196.923 11.6169 172.451 2.97867 146.769 13.7172C118.607 25.5735 106.126 48.1176 107.474 87.0741C107.796 96.3051 104.044 94.6283 98.7137 93.7307C79.9237 90.5633 64.3497 96.5085 53.5682 113.649C52.2024 115.893 50.3864 117.756 48.2603 119.093C46.1352 120.431 43.7588 121.205 41.3171 121.356C18.1166 124.151 3.03134 148.1 0.93406 167.816C-1.47016 190.327 9.05045 211.854 28.9131 222.338C35.9418 226.031 39.4027 230.434 40.2455 238.751C47.5801 310.583 55.2066 382.383 62.7412 454.181C65.6203 478.571 66.447 503.3 71.1795 527.368C74.2426 556.163 77.6885 584.957 79.9697 613.903C81.0114 626.945 85.0851 631.467 98.1479 631.315C185.826 630.186 273.509 629.757 361.198 630.027C373.311 630.027 377.063 626.098 378.334 613.548C390.754 491.359 403.786 369.256 416.481 247.085C417.217 240.055 418.87 234.381 423.664 228.859C452.622 195.525 441.351 147.118 400.984 131.959ZM239.39 63.1582C241.166 43.6121 257.445 25.5397 273.892 23.6765C294.842 21.3052 314.046 33.4157 319.727 52.6738C320.309 54.6555 321.35 57.2978 320.631 58.7713C314.153 72.0843 298.64 74.9976 291.105 88.0226C288.471 92.5959 279.911 87.6839 274.918 84.7707C266.204 79.6893 257.705 74.4217 247.506 73.6257C240.522 73.0837 237.858 69.205 239.39 63.1582ZM240.676 130.045C247.965 112.819 263.555 105.739 278.425 110.075C294.78 114.852 303.203 128.707 301.948 149.727C298.165 160.008 304.643 164.581 312.836 169.205C333.739 181.061 343.464 203.08 338.686 225.709C334.352 245.865 316.22 262.887 296.848 265.021C274.948 267.409 255.133 255.011 247.261 231.145C242.514 216.766 237.199 212.65 223.003 218.222C205.454 225.133 191.502 219.256 181.088 204.435C171.548 190.885 170.369 176.539 178.026 161.617C186.097 145.949 200.185 138.039 218.119 142.121C230.109 144.831 235.668 141.935 240.706 130.045L240.676 130.045ZM123.156 136.041C131.593 131.434 146.127 133.246 147.535 122.626C148.47 115.174 138.347 106.231 133.34 97.7788C129.094 90.6621 126.992 82.2431 127.333 73.7254C127.673 65.2076 130.441 57.0271 135.238 50.3533C146.371 34.8384 163.677 28.4868 179.833 33.9915C196.816 39.7842 207.904 54.9773 208.699 73.5579C209.741 97.982 209.741 97.982 235.791 96.5762C228.746 111.566 220.37 118.781 203.999 119.543C196.687 119.817 189.504 121.75 182.897 125.224C176.289 128.698 170.398 133.636 165.589 139.735C160.781 145.833 157.158 152.96 154.946 160.673C152.733 168.385 151.978 176.518 152.727 184.567C154.013 200.505 146.524 202.623 135.882 203.03C120.353 203.622 107.535 192.545 103.645 175.929C99.9244 160.228 107.918 144.408 123.186 136.041L123.156 136.041ZM22.848 181.569C18.8513 162.938 28.7591 145.661 46.9223 143.408C58.8055 141.935 66.0492 138.192 71.9913 126.251C78.4532 113.294 90.4903 111.837 104.013 120.289C79.5098 145.205 74.6864 173.186 92.2828 204.266C94.1202 208.212 94.61 211.362 88.8829 210.922C81.2253 200.353 73.7677 197.051 60.598 203.555C44.3951 211.566 26.7688 199.625 22.879 181.569L22.848 181.569ZM381.718 382.077C373.664 450.607 366.665 519.272 360.034 587.989C358.624 602.556 354.904 608.754 339.513 608.161C302.422 606.738 265.255 607.687 228.118 607.687L228.118 608.772C190.476 608.772 152.834 608.348 115.222 609.042C104.702 609.228 100.337 606.214 99.1426 594.713C91.67 522.389 83.6606 450.116 75.6971 377.911C74.9623 371.135 75.5442 366.054 83.4916 366.681C90.6593 367.29 98.7137 363.293 101.318 376.844C108.974 416.664 144.595 436.972 179.42 422.576C193.937 416.596 204.535 406.011 210.124 390.275C211.534 386.345 212.421 382.213 213.846 378.301C216.602 370.729 220.4 362.497 228.715 362.853C236.557 363.192 241.227 370.509 243.493 378.554C248.502 396.271 256.372 411.499 272.958 419.967C308.501 438.09 345.715 420.271 355.853 379.723C357.737 372.186 358.472 366.173 368.395 366.173C379.759 366.223 383.342 368.256 381.718 382.077ZM120.66 365.783C120.66 345.916 137.964 327.555 156.969 327.2C176.878 326.827 193.355 343.46 193.876 364.463C194.412 386.752 178.853 404.181 158.21 404.418C138.01 404.672 120.614 386.769 120.66 365.783ZM263.846 364.936C264.015 343.849 280.079 327.149 300.109 327.233C319.62 327.335 336.129 344.662 336.359 365.292C336.604 387.074 320.294 404.503 299.772 404.418C278.992 404.317 263.662 387.48 263.892 364.936L263.846 364.936ZM392.362 273.727C390.738 291.037 388.273 308.33 387.767 325.692C387.369 340.529 382.821 347.711 368.717 343.527C357.783 346.39 352.453 340.884 346.971 331.773C324.627 294.51 272.621 295.797 251.442 333.856C247.215 341.461 243.784 345.797 235.714 340.428C235.295 340.12 234.788 339.993 234.29 340.072C216.25 345.967 207.766 333.381 196.005 321.609C167.904 293.408 129.465 299.981 108.454 335.075C99.8933 349.354 88.393 343.697 78.1933 343.257C67.9946 342.816 72.0672 331.773 71.2715 325.353C67.6267 297.677 64.5487 269.916 61.5627 242.156C60.9808 236.905 57.5039 230.502 64.4567 226.725C69.847 223.794 73.5378 227.234 77.7794 230.3C91.8379 240.462 105.177 238.379 121.012 231.655C138.699 224.134 158.24 212.514 177.673 231.552C188.623 242.274 203.233 245.272 218.119 242.681C224.994 241.494 228.455 243.579 232.161 250.252C259.726 299.913 322.392 300.539 350.493 251.438C355.287 243.07 359.206 237.717 368.471 244.137C369.636 244.934 371.412 244.663 372.76 245.255C379.759 248.372 390.432 241.173 393.954 250.455C396.481 256.924 393.112 265.885 392.362 273.727ZM416.757 199.202C410.279 219.391 389.468 229.062 370.739 220.644C364.138 217.697 361.275 212.514 360.187 204.926C358.873 194.581 355.561 184.668 350.477 175.863C345.393 167.058 338.656 159.564 330.722 153.893C325.669 150.167 323.801 146.051 323.387 139.649C322.744 129.656 321.427 119.171 314.643 111.634C307.338 103.538 310.171 98.2869 316.772 92.3417C327.307 82.8397 338.778 80.7395 351.29 86.7354C363.801 92.7314 369.973 103.453 370.157 119.51C371.213 127.978 362.683 138.903 368.548 146.915C373.847 154.131 385.394 149.693 393.924 152.741C412.438 159.432 422.944 179.943 416.757 199.235L416.757 199.202Z" fill="#20201E"/>
</svg>
