<svg id="Layer_1" data-name="Layer 1" xmlns="http://www.w3.org/2000/svg" viewBox="0 0 600 600"><defs><style>.cls-1{fill:#20201e;}.cls-2{fill:#22211e;}.cls-3{fill:#21211e;}.cls-4{fill:#23231e;}</style></defs><path class="cls-1" d="M419.18,520.26c.23-12.41.56-24.82.63-37.23,0-3.43,1-4.84,5-4.92,16.19-.32,16.18-.44,15.9,14.75,0,1-.05,2-.06,3,0,3.74-1.66,8.78.3,10.91,2.73,3,6.55-1.75,10.22-2.43,16.18-3,31.31,7.63,31.69,23.28.26,10.82-.37,21.66-.4,32.5,0,3-1.15,4-4.39,4.18-16.37.75-16.36.83-16.08-14.54.1-5.91.39-11.82.19-17.73-.16-4.62-2.29-8.38-7.32-10.07-4.68-1.56-8.55-.07-12.22,2.68-2.27,1.69-2.65,3.79-2.68,6.25-.11,9.26-.45,18.52-.42,27.78,0,3.53-1.17,4.77-5.06,4.83-16.1.26-16.09.37-15.81-14.83Z"/><path class="cls-1" d="M307.2,538.53c5.13-11,9.84-20.62,14.09-30.41,1.58-3.65,3.59-5,7.89-5,16.63.29,16.61.14,9.84,14.51-9.88,21-20,41.89-29.43,63.08-2.64,5.94-6.27,7.11-12.4,6.82-12.91-.61-12.92-.35-7.75-11.17,7.31-15.31,7.2-15.27-.46-30.89-6.22-12.67-12-25.54-18.27-38.18-2.32-4.65-.48-4.77,3.9-5.25,11.22-1.21,18.39,1.7,21.56,12.94C298.34,522.67,303,529.72,307.2,538.53Z"/><path class="cls-1" d="M231,515.7c-1.47,1-3.42,1.88-1,3.76,5.7,3.75,13,2.13,19,5,5.41,2,11.41,3.24,14.55,8.56,4.23,7.18,3,18.89-6.75,24.12-16,8.6-38.35,4.35-48.51-9.81a9.84,9.84,0,0,1-2.13-4.81c-.58-2.76.39-4.12,3.5-4,4.79.13,9.59.23,14.38.27,2.34,0,3.76,1.27,5.33,2.64a8,8,0,0,0,9.68,1.19c-6.95-2.53-14.08-4.54-20.44-8.19-7-5.3-11.51-11.59-8.37-20.44,3.09-8.7,10.53-12.18,19.51-13.56,11.8-1.82,22.4.72,31.7,7.86a8.74,8.74,0,0,1,2.83,3.11c4.06,7.21,2.32,10-6.33,9.63-3.77-.16-7.94,1.28-11.23-1.78l-2.64-3.13C239.78,513.82,235.43,513.44,231,515.7Z"/><path class="cls-1" d="M398.41,528.61c-4.24.61-8.36-.19-11.09-5.57-1.92-3.78-10.74-4.63-15.6-2.55s-8.08,8.14-7.36,14.5c.66,5.79,3.6,10.13,9.88,11.61,6,1.41,11.38.48,14.51-5.2,1.28-2.33,3.13-2.87,5.63-2.66,1.46.12,3-.12,4.4.14,3.31.61,8.11-1.76,9.7,1.68s-1.24,7.21-3.36,10.34c-7.61,11.25-24.92,15.74-39.89,10.53-14.67-5.11-22.62-17.78-20.58-32.8,1.83-13.52,13.92-24.27,28.7-25.51,14.63-1.23,27.8,4.64,33.18,14.8C411.52,527.32,410.52,528.84,398.41,528.61Z"/><path class="cls-2" d="M488.76,433.18c0-7.87,0-15.74,0-23.61,0-1.61-.86-4,2-4.3,2.4-.23,5.82-1.56,7,1.56s2.66,1.75,4.4.84a37.53,37.53,0,0,1,15.16-4.42c17.77-1.21,30.5,8.46,31.11,24.07.39,10,0,20.07.17,30.11,0,2.93-.37,4.88-4.6,4.91-4,0-4.9-1.6-4.86-4.68.11-9.25.08-18.5,0-27.75-.06-9.46-4.24-15.63-12-18-9.13-2.74-21.61.6-27.42,7.16-1.69,1.91-1.74,3.94-1.74,6.12,0,10.43,0,20.86,0,31.29,0,3,.49,5.89-4.89,5.83-5.09-.06-4.4-2.84-4.41-5.56Z"/><path class="cls-3" d="M323,455.6c7.71.55,14.38-2.73,18.13-10,1.3-2.53,2.92-3.5,6.09-3.52,4.31,0,4.85,1.29,3.58,4.66-7.06,18.59-37.14,23.22-53.56,8.17-12.48-11.46-12.49-30.09,0-42.56,10.51-10.49,30.25-11.87,44.42-3.28,4.32,2.62,6.75,6.33,8.55,10.35.74,1.64,3.5,4.36-.22,5.44-2.88.83-6.31,1.35-8.51-2.46-5.31-9.2-13.55-12.65-24.23-10.9-12.43,2-21,12.39-19.82,24C298.63,447.6,308.17,455.55,323,455.6Z"/><path class="cls-4" d="M452.31,411c7.13-4.39,12.88-8.1,20.09-8.89,2.78-.31,6.42-1.75,7,2.74.46,3.61-1.16,4.88-5.33,5.61-14.86,2.57-21.46,10-21.45,23.38,0,7.68.13,15.35-.06,23-.07,2.92,1.9,7-4.69,7.07-7.05.09-5.06-4.28-5.08-7.39-.14-15.14-.2-30.29.06-45.44,0-2.72-2.61-7,3.92-7.64C452.58,402.91,453.3,406,452.31,411Z"/><path class="cls-1" d="M402.52,82.05c-4.93-1.66-6.2-3.53-6.34-8.41-.48-16.35-8.68-27-24.85-31.84-5.21-1.56-7.09-4.21-8.53-8.68-5.29-16.46-17-26.51-34.67-28.55-17-2-30,5.39-39.12,19.26-1,1.5-2.19,2.86-3.34,4.35C269.27,11,253.29,5.9,236.52,12.24c-18.39,7-26.54,20.31-25.66,43.31.21,5.45-2.24,4.46-5.72,3.93-12.27-1.87-22.44,1.64-29.48,11.76a10.34,10.34,0,0,1-8,4.55c-15.15,1.65-25,15.79-26.37,27.43-1.57,13.29,5.3,26,18.27,32.19,4.59,2.18,6.85,4.78,7.4,9.69,4.79,42.41,9.77,84.8,14.69,127.19,1.88,14.4,2.42,29,5.51,43.21,2,17,4.25,34,5.74,51.09.68,7.7,3.34,10.37,11.87,10.28q85.88-1,171.77-.76c7.91,0,10.36-2.32,11.19-9.73,8.11-72.14,16.62-144.23,24.91-216.36.48-4.15,1.56-7.5,4.69-10.76C436.24,119.58,428.88,91,402.52,82.05ZM297,41.43c1.16-11.54,11.79-22.21,22.53-23.31,13.68-1.4,26.22,5.75,29.93,17.12.38,1.17,1.06,2.73.59,3.6-4.23,7.86-14.36,9.58-19.28,17.27-1.72,2.7-7.31-.2-10.57-1.92-5.69-3-11.24-6.11-17.9-6.58C297.74,47.29,296,45,297,41.43Zm.84,39.49c4.76-10.17,14.94-14.35,24.65-11.79,10.68,2.82,16.18,11,15.36,23.41-2.47,6.07,1.76,8.77,7.11,11.5,13.65,7,20,20,16.88,33.36-2.83,11.9-14.67,21.95-27.32,23.21-14.3,1.41-27.24-5.91-32.38-20-3.1-8.49-6.57-10.92-15.84-7.63-11.46,4.08-20.57.61-27.37-8.14-6.23-8-7-16.47-2-25.28,5.27-9.25,14.47-13.92,26.18-11.51C290.94,89.65,294.57,87.94,297.86,80.92Zm-76.74,3.54c5.51-2.72,15-1.65,15.92-7.92.61-4.4-6-9.68-9.27-14.67a23.87,23.87,0,0,1,1.24-28c7.27-9.16,18.57-12.91,29.12-9.66,11.09,3.42,18.33,12.39,18.85,23.36.68,14.42.68,14.42,17.69,13.59-4.6,8.85-10.07,13.11-20.76,13.56a34.84,34.84,0,0,0-33.48,38.39c.84,9.41-4.05,10.66-11,10.9-10.14.35-18.51-6.19-21.05-16C205.93,98.74,211.15,89.4,221.12,84.46Zm-65.5,26.88c-2.61-11,3.86-21.2,15.72-22.53,7.76-.87,12.49-3.08,16.37-10.13,4.22-7.65,12.08-8.51,20.91-3.52-16,14.71-19.15,31.23-7.66,49.58,1.2,2.33,1.52,4.19-2.22,3.93-5-6.24-9.87-8.19-18.47-4.35C169.67,129.05,158.16,122,155.62,111.34ZM389.94,229.72c-5.26,40.46-9.83,81-14.16,121.57-.92,8.6-3.35,12.26-13.4,11.91-24.22-.84-48.49-.28-72.74-.28v.64c-24.58,0-49.16-.25-73.72.16-6.87.11-9.72-1.67-10.5-8.46-4.88-42.7-10.11-85.37-15.31-128-.48-4-.1-7,5.09-6.63,4.68.36,9.94-2,11.64,6,5,23.51,28.26,35.5,51,27,9.48-3.53,16.4-9.78,20.05-19.07.92-2.32,1.5-4.76,2.43-7.07,1.8-4.47,4.28-9.33,9.71-9.12,5.12.2,8.17,4.52,9.65,9.27,3.27,10.46,8.41,19.45,19.24,24.45,23.21,10.7,47.51.18,54.13-23.76,1.23-4.45,1.71-8,8.19-8C388.66,220.36,391,221.56,389.94,229.72ZM219.47,220.1c0-11.73,11.3-22.57,23.71-22.78,13-.22,23.76,9.6,24.1,22,.35,13.16-9.81,23.45-23.29,23.59C230.8,243.06,219.44,232.49,219.47,220.1Zm93.5-.5c.11-12.45,10.6-22.31,23.68-22.26,12.74.06,23.52,10.29,23.67,22.47.16,12.86-10.49,23.15-23.89,23.1C322.86,242.85,312.85,232.91,313,219.6Zm83.92-53.85c-1.06,10.22-2.67,20.43-3,30.68-.26,8.76-3.23,13-12.44,10.53-7.14,1.69-10.62-1.56-14.2-6.94-14.59-22-48.55-21.24-62.38,1.23-2.76,4.49-5,7.05-10.27,3.88a1.34,1.34,0,0,0-.93-.21c-11.78,3.48-17.32-3.95-25-10.9-18.35-16.65-43.45-12.77-57.17,7.95-5.59,8.43-13.1,5.09-19.76,4.83s-4-6.78-4.52-10.57c-2.38-16.34-4.39-32.73-6.34-49.12-.38-3.1-2.65-6.88,1.89-9.11,3.52-1.73,5.93.3,8.7,2.11,9.18,6,17.89,4.77,28.23.8,11.55-4.44,24.31-11.3,37-.06,7.15,6.33,16.69,8.1,26.41,6.57,4.49-.7,6.75.53,9.17,4.47,18,29.32,58.92,29.69,77.27.7,3.13-4.94,5.69-8.1,11.74-4.31.76.47,1.92.31,2.8.66,4.57,1.84,11.54-2.41,13.84,3.07C399.58,155.83,397.38,161.12,396.89,165.75Zm15.93-44c-4.23,11.92-17.82,17.63-30.05,12.66-4.31-1.74-6.18-4.8-6.89-9.28A43,43,0,0,0,356.64,95c-3.3-2.2-4.52-4.63-4.79-8.41-.42-5.9-1.28-12.09-5.71-16.54-4.77-4.78-2.92-7.88,1.39-11.39,6.88-5.61,14.37-6.85,22.54-3.31s12.2,9.87,12.32,19.35c.69,5-4.88,11.45-1.05,16.18,3.46,4.26,11,1.64,16.57,3.44C410,98.27,416.86,110.38,412.82,121.77Z"/><path class="cls-1" d="M195.2,510.38c-8.28-10.25-22.52-14.06-35.57-9.53-1.32.46-2.69,2-4,1-5.08-3.73-11-1.27-16.38-2.11-4.25-.66-5.33,1.38-5.34,5.09,0,12.41-.39,24.82-.63,37.22q-.27,14.19-.53,28.36c-.28,14.76-.28,14.66,15.57,14.47,3.72,0,5.33-1,5.27-4.68-.1-6.49.41-13,.23-19.49-.12-4.58,1-5.19,5.61-3.35a31,31,0,0,0,35.56-8.9C203.82,537.59,203.93,521.18,195.2,510.38Zm-20.55,31.17c-5.16,3-13,2.47-17.69-1.17a6.14,6.14,0,0,1-2.66-5.64c.18-2.74.14-5.5.19-8.25.16-8.29,3.73-11.58,12.52-11.53,7.07,0,11.78,3.45,13.77,9.95C182.71,531.23,180.1,538.35,174.65,541.55Z"/><path class="cls-3" d="M115.86,422.81c-7.34-17-29.63-24.22-48.6-15.92-1.53.67-3.69,4.27-5.52.36-1.68-3.58-4.91-2.15-7.46-2-3.84.18-2.63,3.11-2.64,5.06-.06,25.38,0,50.76-.06,76.13,0,3.1-.39,5.77,4.91,5.79,5.07,0,5.21-2.27,5.15-5.58-.14-9.37,0-18.75,0-28.12,3-.26,4.37,1.26,6.09,2,13.73,6.13,28.27,4.18,40.45-5.5C117.23,447.83,120.6,433.76,115.86,422.81ZM94.35,454c-8.49,3.78-21.7,2-28.86-3.86-3.9-3.2-3.9-3.2-3.9-16.55V430c0-13.71,12.2-21.8,27.71-18.36,10.17,2.26,18.17,10.54,19.25,19.91C109.56,440.39,103.55,449.87,94.35,454Z"/><path class="cls-3" d="M265.06,410c-11.62-8-24.66-8.9-38.06-3-2.23,1-4.45,4.1-6.25-.78-.84-2.26-4.46-1.29-6.77-1-2.91.36-2,2.7-2,4.32-.06,13,0,26,0,39,0,12.81.06,25.61,0,38.41,0,3,0,5.29,4.78,5.23s4.71-2.51,4.69-5.44c-.06-8.47,0-16.94,0-25.41,0-3.09.59-4,4.11-2a35,35,0,0,0,23.23,4.3c13.5-2.07,23.39-8.71,27.5-20.13C280.79,430.58,277.59,418.62,265.06,410Zm1.23,32.32c-3.43,8.3-12.88,13.76-23.57,13.6-6.22-.16-12-1.25-16.68-5.24-3.17-2.72-4.51-7.44-4.81-9.87-.57-4.47-.17-9,0-13.54.21-6.29,2.93-10,8.33-12.95a27.85,27.85,0,0,1,28.93,1.53C267.73,422.47,270.55,432,266.29,442.33Z"/><path class="cls-3" d="M163.2,403.36c-19.46-.2-35,13.08-35.1,30s15.21,30.63,34.38,30.73,34.59-13.37,34.66-30.4C197.21,417,182.23,403.55,163.2,403.36Zm-.13,52.58c-14.42.17-25.5-9.53-25.52-22.35,0-12.22,11.29-22.36,25-22.43s25,9.94,25.1,22.28C187.76,446,177.12,455.78,163.07,455.94Z"/><path class="cls-3" d="M396.54,403.35c-19.42-.1-34.75,13.3-34.7,30.32s15.44,30.49,34.64,30.45,34.47-13.75,34.37-30.7C430.76,416.75,415.58,403.45,396.54,403.35Zm0,52.6c-14.34.09-25.47-9.8-25.36-22.55.09-12.22,11.53-22.29,25.27-22.25s24.89,10,24.86,22.48C421.29,446.34,410.72,455.86,396.54,456Z"/></svg>